<?xml version="1.0" encoding="UTF-8"?>
<?xml-stylesheet href="/assets/main.css" type="text/css"?>
<svg
   xmlns:dc="http://purl.org/dc/elements/1.1/"
   xmlns:cc="http://creativecommons.org/ns#"
   xmlns:rdf="http://www.w3.org/1999/02/22-rdf-syntax-ns#"
   xmlns:svg="http://www.w3.org/2000/svg"
   xmlns="http://www.w3.org/2000/svg"
   version="1.1"
   width="64"
   height="64"
   preserveAspectRatio="xMinYMin meet"
   viewBox="0 0 64 64"
   id="epicswap_logo">
  <g transform="matrix(0.3085765,0,0,0.32246037,-11.484225,-13.693137)">
    <path id="epicswap_logo_bottom"
       d="m 221.979,202.479 c 0,8.444 -5,15.847 -10.703,15.847 H 70.562 c -5.702,0 -10.703,-7.402 -10.703,-15.847 v -65.566 h 39.788 l -20.715,20.714 c -0.864,0.863 -1.122,2.162 -0.655,3.291 0.466,1.128 1.567,1.862 2.789,1.862 h 22.471 c 0.802,0 1.57,-0.318 2.136,-0.885 l 33.977,-34.021 c 1.176,-1.179 1.178,-3.086 0.001,-4.266 L 105.675,89.56 c -0.568,-0.569 -1.335,-0.887 -2.138,-0.887 H 81.021 c -1.221,0 -2.322,0.735 -2.789,1.863 -0.469,1.129 -0.211,2.426 0.654,3.29 l 20.574,20.56 H 37.217 v 88.093 c 0,21.224 14.958,38.488 33.345,38.488 h 140.714 c 18.386,0 33.345,-17.265 33.345,-38.488 h -22.642 z" />
    <path id="epicswap_logo_top"
       d="M 211.276,42.493 H 70.562 c -18.387,0 -33.345,17.264 -33.345,38.488 h 22.642 c 0,-8.443 5,-15.846 10.703,-15.846 h 140.714 c 5.701,0 10.703,7.403 10.703,15.846 v 66.195 h -39.985 l 20.573,-20.561 c 0.862,-0.861 1.122,-2.161 0.654,-3.29 -0.467,-1.127 -1.568,-1.863 -2.789,-1.863 h -22.517 c -0.802,0 -1.569,0.318 -2.137,0.888 L 141.8,156.4 c -1.176,1.178 -1.175,3.086 0,4.266 l 33.979,34.02 c 0.566,0.566 1.334,0.887 2.136,0.887 h 22.471 c 1.221,0 2.322,-0.734 2.789,-1.863 0.469,-1.13 0.211,-2.425 -0.654,-3.29 l -20.715,-20.716 h 40.173 3.368 19.273 V 80.98 C 244.621,59.76 229.662,42.493 211.276,42.493 z" />
  </g>
</svg>
