<svg
   xmlns:dc="http://purl.org/dc/elements/1.1/"
   xmlns:cc="http://creativecommons.org/ns#"
   xmlns:rdf="http://www.w3.org/1999/02/22-rdf-syntax-ns#"
   xmlns:svg="http://www.w3.org/2000/svg"
   xmlns="http://www.w3.org/2000/svg"
   version="1.1"
   width="64"
   height="64"
   id="facebook_logo">
  <g transform="matrix(1,0,0,0.99435732,-0.0726744,0.07213272)">
    <path fill="#3d539e"
       d="m 60.529276,63.904006 c 1.95074,0 3.5322,-1.581452 3.5322,-3.532189 l 0,-56.9356219 c 0,-1.951217 -1.58146,-3.53218906 -3.5322,-3.53218906 l -56.9353608,0 c -1.95146,0 -3.53244002,1.58097206 -3.53244002,3.53218906 l 0,56.9356219 c 0,1.950737 1.58098002,3.532189 3.53244002,3.532189 l 56.9353608,0" />
    <path fill="#ffffff"
       d="m 45.293953,64.301087 0,-24.784072 8.31901,0 1.24551,-9.658965 -9.56452,0 0,-6.166823 c 0,-2.796496 0.77646,-4.702151 4.78682,-4.702151 l 5.11486,-0.0024 0,-8.638874 c -0.88509,-0.117501 -3.92092,-0.3805569 -7.45312,-0.3805569 -7.37446,0 -12.42313,4.5012029 -12.42313,12.7676769 l 0,7.123127 -8.34036,0 0,9.658965 8.34036,0 0,24.784072 9.97457,0" />
  </g>
</svg>
