<svg
   xmlns:dc="http://purl.org/dc/elements/1.1/"
   xmlns:cc="http://creativecommons.org/ns#"
   xmlns:rdf="http://www.w3.org/1999/02/22-rdf-syntax-ns#"
   xmlns:svg="http://www.w3.org/2000/svg"
   xmlns="http://www.w3.org/2000/svg"
   version="1.1"
   width="64"
   height="64"
   id="linkedin_logo">
  <g transform="translate(189.17449,-61.734357)">
    <path fill="#0977b6"
       d="m -129.92226,61.72727 -54.53538,0 c -2.60728,0 -4.72418,2.06726 -4.72418,4.610963 l 0,54.770987 c 0,2.54872 2.1169,4.61805 4.72418,4.61805 l 54.53538,0 c 2.61007,0 4.74044,-2.06933 4.74044,-4.61805 l 0,-54.770987 c 0,-2.543703 -2.13037,-4.610963 -4.74044,-4.610963"
       style="fill:;fill-opacity:1;fill-rule:nonzero;stroke:none" />
    <path fill="#ffffff"
       d="m -174.9486,70.53853 c 3.03472,0 5.50115,2.466371 5.50115,5.502519 0,3.039111 -2.46643,5.505778 -5.50115,5.505778 -3.04282,0 -5.50232,-2.466667 -5.50232,-5.505778 0,-3.036148 2.4595,-5.502519 5.50232,-5.502519 m -4.74883,15.184 9.4965,0 0,30.5419 -9.4965,0 0,-30.5419" />
    <path fill="#ffffff"
       d="m -164.24721,85.72253 9.10658,0 0,4.171259 0.12948,0 c 1.26755,-2.400296 4.36474,-4.93274 8.98281,-4.93274 9.60533,0 11.37956,6.324148 11.37956,14.550814 l 0,16.752567 -9.48148,0 0,-14.85186 c 0,-3.543966 -0.0696,-8.099521 -4.93423,-8.099521 -4.93955,0 -5.69303,3.858666 -5.69303,7.842341 l 0,15.10904 -9.48969,0 0,-30.5419" />
  </g>
</svg>
