<?xml version="1.0" encoding="UTF-8" standalone="no"?>

<svg
   xmlns:dc="http://purl.org/dc/elements/1.1/"
   xmlns:cc="http://creativecommons.org/ns#"
   xmlns:rdf="http://www.w3.org/1999/02/22-rdf-syntax-ns#"
   xmlns:svg="http://www.w3.org/2000/svg"
   xmlns="http://www.w3.org/2000/svg"
   version="1.1"
   width="64"
   height="64"
   preserveAspectRatio="xMinYMin meet"
   viewBox="0 0 64 64"
   id="menu">
    <g transform="matrix(0.74899741,0,0,0.74899741,-1.4048713,-1.3449737)">
      <path
         d="m 81.653,28.71 c 0,0.9 -0.729,1.629 -1.629,1.629 H 9.976 c -0.9,0 -1.629,-0.729 -1.629,-1.629 V 17.307 c 0,-0.9 0.729,-1.629 1.629,-1.629 h 70.048 c 0.9,0 1.629,0.729 1.629,1.629 V 28.71 z" />
      <path
         d="m 81.653,50.702 c 0,0.9 -0.729,1.629 -1.629,1.629 H 9.976 c -0.9,0 -1.629,-0.729 -1.629,-1.629 V 39.298 c 0,-0.9 0.729,-1.629 1.629,-1.629 h 70.048 c 0.9,0 1.629,0.729 1.629,1.629 v 11.404 z" />
      <path
         d="m 81.653,72.693 c 0,0.9 -0.729,1.629 -1.629,1.629 H 9.976 c -0.9,0 -1.629,-0.729 -1.629,-1.629 V 61.29 c 0,-0.9 0.729,-1.629 1.629,-1.629 h 70.048 c 0.9,0 1.629,0.729 1.629,1.629 v 11.403 z" />
    </g>
</svg>
