<?xml version="1.0" encoding="utf-8"?>
<!-- Generator: Adobe Illustrator 15.0.0, SVG Export Plug-In . SVG Version: 6.00 Build 0)  -->
<!DOCTYPE svg PUBLIC "-//W3C//DTD SVG 1.1//EN" "http://www.w3.org/Graphics/SVG/1.1/DTD/svg11.dtd">
<svg version="1.1"
	 id="epicswap_logo" xmlns:svg="http://www.w3.org/2000/svg" xmlns:rdf="http://www.w3.org/1999/02/22-rdf-syntax-ns#" xmlns:cc="http://creativecommons.org/ns#" xmlns:dc="http://purl.org/dc/elements/1.1/"
	 xmlns="http://www.w3.org/2000/svg" xmlns:xlink="http://www.w3.org/1999/xlink" x="0px" y="0px" width="100px" height="100px"
	 viewBox="0 0 100 100" enable-background="new 0 0 100 100" xml:space="preserve">
<g transform="matrix(0.3085765,0,0,0.32246037,-11.484225,-13.693137)">
	<path id="epicswap_logo_bottom" fill="#0085EF" d="M325.911,292.438c0,13.195-7.814,24.767-16.722,24.767H89.32
		c-8.909,0-16.724-11.572-16.724-24.767V189.994h62.17l-32.367,32.362c-1.35,1.354-1.755,3.38-1.024,5.148
		c0.728,1.76,2.451,2.901,4.356,2.901h35.113c1.253,0,2.454-0.491,3.337-1.381l53.09-53.154c1.836-1.841,1.842-4.821,0.002-6.666
		l-53.09-53.2c-0.886-0.889-2.084-1.387-3.339-1.387h-35.181c-1.91,0-3.63,1.149-4.359,2.91c-0.731,1.764-0.328,3.79,1.022,5.141
		l32.152,32.126h-97.26v137.643c0,33.165,23.373,60.142,52.104,60.142h219.867c28.729,0,52.098-26.984,52.098-60.142H325.911z"/>
	<path id="epicswap_logo_top" d="M309.188,42.465H89.32c-28.731,0-52.103,26.973-52.103,60.135h35.379
		c0-13.192,7.812-24.758,16.724-24.758h219.869c8.906,0,16.722,11.566,16.722,24.758v103.43h-62.478l32.147-32.129
		c1.342-1.346,1.75-3.375,1.016-5.141c-0.725-1.76-2.446-2.91-4.355-2.91h-35.182c-1.256,0-2.453,0.498-3.339,1.387l-53.092,53.209
		c-1.837,1.835-1.837,4.815,0,6.666l53.092,53.156c0.886,0.878,2.082,1.381,3.339,1.381h35.106c1.908,0,3.63-1.145,4.364-2.907
		c0.731-1.769,0.326-3.792-1.025-5.142l-32.363-32.368h62.769h5.26h30.116v-138.63C361.286,69.444,337.918,42.465,309.188,42.465z"
		/>
</g>
</svg>
