<?xml version="1.0" encoding="utf-8"?>
<!-- Generator: Adobe Illustrator 15.0.0, SVG Export Plug-In . SVG Version: 6.00 Build 0)  -->
<!DOCTYPE svg PUBLIC "-//W3C//DTD SVG 1.1//EN" "http://www.w3.org/Graphics/SVG/1.1/DTD/svg11.dtd">
<svg version="1.1"
	 id="facebook_logo" xmlns:svg="http://www.w3.org/2000/svg" xmlns:rdf="http://www.w3.org/1999/02/22-rdf-syntax-ns#" xmlns:cc="http://creativecommons.org/ns#" xmlns:dc="http://purl.org/dc/elements/1.1/"
	 xmlns="http://www.w3.org/2000/svg" xmlns:xlink="http://www.w3.org/1999/xlink" x="0px" y="0px" width="100px" height="100px"
	 viewBox="0 0 100 100" enable-background="new 0 0 100 100" xml:space="preserve">
<g transform="matrix(1,0,0,0.99435732,-0.0726744,0.07213272)">
	<path fill="#3D539E" d="M94.555,99.875c3.048,0,5.518-2.469,5.518-5.516V5.443c0-3.046-2.47-5.516-5.518-5.516H5.593
		c-3.05,0-5.521,2.47-5.521,5.516v88.916c0,3.046,2.471,5.516,5.521,5.516H94.555"/>
	<path fill="#FFFFFF" d="M70.748,100.495V61.791h13l1.943-15.085H70.748v-9.63c0-4.367,1.215-7.343,7.479-7.343l7.993-0.004V16.237
		c-1.384-0.183-6.127-0.594-11.646-0.594c-11.523,0-19.414,7.029-19.414,19.94v11.123H42.132v15.085h13.03v38.704H70.748"/>
</g>
</svg>
