<?xml version="1.0" encoding="utf-8"?>
<!-- Generator: Adobe Illustrator 15.0.0, SVG Export Plug-In . SVG Version: 6.00 Build 0)  -->
<!DOCTYPE svg PUBLIC "-//W3C//DTD SVG 1.1//EN" "http://www.w3.org/Graphics/SVG/1.1/DTD/svg11.dtd">
<svg version="1.1"
	 id="linkedin_logo" xmlns:dc="http://purl.org/dc/elements/1.1/" xmlns:cc="http://creativecommons.org/ns#" xmlns:rdf="http://www.w3.org/1999/02/22-rdf-syntax-ns#" xmlns:svg="http://www.w3.org/2000/svg"
	 xmlns="http://www.w3.org/2000/svg" xmlns:xlink="http://www.w3.org/1999/xlink" x="0px" y="0px" width="100px" height="100px"
	 viewBox="-18 -18 100 100" enable-background="new -18 -18 100 100" xml:space="preserve">
<g transform="translate(189.17449,-61.734357)">
	<path fill="#0977B6" d="M-114.581,43.734h-85.212c-4.074,0-7.382,3.229-7.382,7.205v85.58c0,3.982,3.308,7.216,7.382,7.216h85.212
		c4.078,0,7.406-3.233,7.406-7.216v-85.58C-107.174,46.964-110.503,43.734-114.581,43.734"/>
	<path fill="#FFFFFF" d="M-184.934,57.501c4.742,0,8.595,3.854,8.595,8.598c0,4.749-3.854,8.603-8.595,8.603
		c-4.755,0-8.598-3.854-8.598-8.603C-193.532,61.355-189.689,57.501-184.934,57.501 M-192.355,81.227h14.838v47.722h-14.838V81.227"
		/>
	<path fill="#FFFFFF" d="M-168.214,81.227h14.229v6.518h0.204c1.979-3.75,6.819-7.707,14.035-7.707
		c15.009,0,17.779,9.881,17.779,22.735v26.176h-14.813v-23.207c0-5.535-0.109-12.655-7.712-12.655c-7.718,0-8.894,6.03-8.894,12.254
		v23.608h-14.828V81.227"/>
</g>
</svg>
