<?xml version="1.0" encoding="utf-8"?>
<!-- Generator: Adobe Illustrator 15.0.0, SVG Export Plug-In . SVG Version: 6.00 Build 0)  -->
<!DOCTYPE svg PUBLIC "-//W3C//DTD SVG 1.1//EN" "http://www.w3.org/Graphics/SVG/1.1/DTD/svg11.dtd">
<svg version="1.1"
	 id="menu" xmlns:dc="http://purl.org/dc/elements/1.1/" xmlns:cc="http://creativecommons.org/ns#" xmlns:rdf="http://www.w3.org/1999/02/22-rdf-syntax-ns#" xmlns:svg="http://www.w3.org/2000/svg"
	 xmlns="http://www.w3.org/2000/svg" xmlns:xlink="http://www.w3.org/1999/xlink" x="0px" y="0px" width="100px" height="100px"
	 viewBox="0 0 100 100" enable-background="new 0 0 100 100" xml:space="preserve">
<g transform="matrix(0.74899741,0,0,0.74899741,-1.4048713,-1.3449737)">
	<path d="M122.036,44.813c0,1.319-1.069,2.375-2.36,2.375H17.602c-1.318,0-2.374-1.056-2.374-2.375V28.202
		c0-1.319,1.056-2.375,2.374-2.375h102.075c1.291,0,2.36,1.055,2.36,2.375V44.813z"/>
	<path d="M122.036,76.87c0,1.292-1.069,2.361-2.36,2.361H17.602c-1.318,0-2.374-1.069-2.374-2.361V60.244
		c0-1.318,1.056-2.374,2.374-2.374h102.075c1.291,0,2.36,1.056,2.36,2.374V76.87z"/>
	<path d="M122.036,108.913c0,1.291-1.069,2.363-2.36,2.363H17.602c-1.318,0-2.374-1.069-2.374-2.363V92.273
		c0-1.292,1.056-2.363,2.374-2.363h102.075c1.291,0,2.36,1.069,2.36,2.363V108.913z"/>
</g>
</svg>
